<?xml version="1.0" encoding="utf-8"?>
<!DOCTYPE svg PUBLIC "-//W3C//DTD SVG 1.1//EN" "http://www.w3.org/Graphics/SVG/1.1/DTD/svg11.dtd">
<svg version="1.1" id="Layer_1" xmlns="http://www.w3.org/2000/svg" xmlns:xlink="http://www.w3.org/1999/xlink" x="0px" y="0px"
	 width="150px" height="150px" viewBox="0 0 150 150" enable-background="new 0 0 150 150" xml:space="preserve">
<g>
	<path fill="none" d="M89.604,102.977c-0.309,0.359-0.794,1.93-0.281,2.309c0.479,0.359,1.73-0.688,2.05-1.107
		c0.331-0.439,0.188-1.096-0.319-1.443C90.567,102.398,89.918,102.48,89.604,102.977z"/>
	<path fill="none" d="M87.664,101.645c0.275-0.426,0.137-1.076-0.348-1.422c-0.484-0.342-1.162-0.266-1.466,0.23
		c-0.313,0.451-0.776,1.945-0.292,2.336C86.055,103.137,87.316,102.139,87.664,101.645z"/>
	<path fill="none" d="M87.459,106.438c-0.303,0.387-0.766,1.934-0.291,2.32c0.496,0.348,1.779-0.678,2.1-1.064
		c0.318-0.463,0.143-1.102-0.331-1.486C88.43,105.842,87.801,105.963,87.459,106.438z"/>
	<path fill="none" d="M90.656,96.883c-0.304,0.475-0.762,2.006-0.266,2.32c0.458,0.336,1.748-0.584,2.078-1.043
		c0.292-0.445,0.154-1.123-0.33-1.453C91.664,96.326,90.98,96.42,90.656,96.883z"/>
	<path fill="none" d="M94.546,99.76c-0.303,0.43-0.761,1.955-0.292,2.314c0.513,0.324,1.77-0.635,2.094-1.07
		c0.303-0.436,0.182-1.123-0.324-1.465C95.527,99.203,94.888,99.307,94.546,99.76z"/>
	<path fill="none" d="M94.331,93.074c0.313-0.473,0.165-1.096-0.304-1.432c-0.512-0.348-1.162-0.254-1.465,0.188
		c-0.336,0.424-0.783,2-0.298,2.32C92.761,94.486,94.027,93.504,94.331,93.074z"/>
	<path fill="none" d="M93.477,105.771c-0.309,0.473-0.793,2.027-0.309,2.309c0.508,0.396,1.785-0.584,2.105-1.059
		c0.319-0.43,0.165-1.119-0.32-1.443C94.458,105.248,93.808,105.336,93.477,105.771z"/>
	<path fill="none" d="M88.705,95.637c0.325-0.484,0.182-1.113-0.325-1.426c-0.485-0.359-1.141-0.271-1.454,0.158
		c-0.309,0.49-0.783,2.006-0.299,2.338C87.156,97.086,88.38,96.066,88.705,95.637z"/>
	<path fill="none" d="M59.208,83.195c-4.959-5.357-4.689-15.821,4.414-17.582c-1.659-0.791-3.317-1.557-4.959-2.331
		C51.796,68.275,51.84,78.186,59.208,83.195z"/>
	<path fill="none" d="M49.917,102.139c-0.909,1.449-1.025,2.955-0.209,3.406c0.805,0.463,2.204-0.357,3.125-1.785
		c0.92-1.434,1.02-2.949,0.204-3.406C52.249,99.924,50.86,100.713,49.917,102.139z"/>
	<path fill="none" d="M56.888,46.515c-1.427,0.507-1.907,1.042-2.105,1.612C55.362,48.003,56.166,47.295,56.888,46.515z"/>
	<path fill="none" d="M97.748,94.094c-0.458-0.318-1.119-0.242-1.472,0.188c-0.304,0.486-0.761,2.045-0.281,2.359
		c0.474,0.336,1.78-0.607,2.095-1.092C98.393,95.113,98.244,94.486,97.748,94.094z"/>
	<path fill="none" d="M104.707,88.254c0.027,0,0.066,0,0.088-0.023c-0.061-0.121-0.154-0.309-0.264-0.539
		C104.619,87.912,104.668,88.1,104.707,88.254z"/>
	<path fill="none" d="M74.708,14.67c-34.12,0.063-61.705,27.665-61.766,61.78c0.061,34.087,27.646,61.716,61.766,61.776
		c34.143-0.061,61.716-27.656,61.783-61.776C136.425,42.335,108.852,14.734,74.708,14.67z M75.05,136.178
		c-32.787-0.078-59.33-26.605-59.38-59.395c0.05-32.806,26.593-59.311,59.38-59.388c32.782,0.077,59.314,26.582,59.363,59.388
		C134.364,109.572,107.832,136.1,75.05,136.178z"/>
	<path fill="none" d="M75.05,18.332c-32.291,0.072-58.399,26.169-58.449,58.451c0.05,32.277,26.158,58.391,58.449,58.463
		c32.258-0.072,58.382-26.186,58.443-58.463C133.433,44.501,107.309,18.404,75.05,18.332z M97.059,43.862
		c1.146,1.981,2.805-1.246,4.701,0.446c0.705,0.639,0.617,1.813,0.947,2.477c1.504-2.945,1.312-6.161-4.006-6.183
		c0.678-0.716,1.339-1.441,2.006-2.158c5.681,0.144,5.059,5.296,3.774,9.114c0.303-0.033,0.507-0.151,0.518-0.163
		c0,0,1.389-3.708,4.728-0.256c3.318,3.455,3.803-1.11,6.745,3.278c2.948,4.425-12.922,21.251-15.005,22.386
		c-2.039,1.121-1.691-2.794-2.97-3.444c-1.263-0.658-2.436,2.078-4.562,1.108c-2.128-0.954-1.758-3.811-3.059-3.284
		c-1.317,0.518-2.116,1.998-3.339-0.231c-1.213-2.218,0.165-20.703,3.389-24.122C94.154,39.417,95.907,41.878,97.059,43.862z
		 M64.944,44.887l3.989-6.367c1.069,0.909,2.281,1.791,3.582,2.642c0.209,0.124,0.738-0.157,1.312-0.49
		c-5.494-3.764-10.051-8.803-8.26-11.327c4.144-5.852,12.47-7.241,18.586-3.088c6.122,4.11,7.715,12.167,3.587,18.019
		c-1.311,1.841-4.793,1.207-8.635-0.581l-5.802,6.292c-1.069,1.168-2.987,1.491-4.513,0.56l-2.865-1.75
		C64.41,47.871,64.101,46.201,64.944,44.887z M67.915,67.297c-0.612-0.716-1.031-6.122-0.959-6.122
		c-2.551-0.479-4.193-1.044-5.555-2.088c2.155,0.193,4.381-0.182,6.536,0l0.628-6.987l0.518-1.185c0,2.692,0.017,5.428,0.017,8.12
		c1.582-0.444,3.62-0.201,5.5-0.05c-1.697,1.325-3.918,2.166-5.891,2.488C68.972,61.619,68.586,66.201,67.915,67.297z
		 M61.566,60.641c1.708-0.088,3.389,0.73,4.921,1.185c-0.166,1.56,0.446,6.006,1.499,6.48c0.716,0.659,1.51-4.667,1.444-6.287
		c1.901-0.446,3.609-1.799,6.006-1.863c2.005-0.088,3.89,0.64,5.51,1.926c2.904,2.336,4.915,6.554,5.108,11.426
		c0.303,8.541-7.186,14.691-15.357,15.418c-9.302,0.871-19.485-4.811-19.827-14.211c-0.165-4.948,1.786-9.332,4.926-11.845
		C57.45,61.534,59.423,60.693,61.566,60.641z M37.883,80.109c-1.598,1.619-5.879-2.094-7.092-8.161
		c-2.485-12.646,10.073-31.96,21.022-26.149c1.058,0.564,4.629-2.725,4.629-2.725l1.807,1.83c0.144-0.176,0.243-0.312,0.243-0.312
		l3.251,2.196c-8.21,3.513,0.458,3.847-8.442,8.665c-6.552,3.543-8.37,12.363-7.67,19.097c0.672,6.695,2.833,8.183,1.576,10.089
		c-1.246,1.895-6.155-0.932-8.475-6.635c-0.121-0.295-0.193-0.619-0.298-0.928C38.61,78.488,38.643,79.344,37.883,80.109z
		 M67.236,120.854c-8.018,5.328-18.09,4.275-22.482-2.381c-4.039-6.072-1.863-14.701,4.706-20.213
		c-3.687-0.291-7.334-1.725-9.092-4.275c3.846-4.072,10.2-2.695,13.919-0.055c0.358,0.252,0.661,0.572,0.976,0.881
		c7.119-2.756,14.817-1.168,18.515,4.396C78.191,105.842,75.26,115.553,67.236,120.854z M108.162,112.434
		c-8.85,6.061-15.104,9.83-22.84,4.43c-7.285-5.113-5.848-13.412-3.5-22.873c2.166-8.768,6.53-15.502,22.373-4.029
		C118.72,100.42,115.584,107.33,108.162,112.434z M111.198,93.455c-5.306-3.758-6.833-4.859-7.208-5.135c-0.005,0-0.01,0-0.01,0
		c-0.066-0.057-0.199-0.15,0.01,0c0,0,0.072-0.012,0.205-0.029c-0.85-0.572-2.635-1.779-6.459-4.318
		c-3.24-2.127-6.215-4.447-3.812-6.564c2.242-2.082,4.678-0.436,6.794,2.602c1.251,1.797,2.144,3.504,2.776,4.932
		c-0.495-1.516-0.958-3.4-1.107-5.494c-0.215-3.303,0.838-5.306,4.502-3.777c3.847,1.609,2.723,4.339,1.273,7.062
		c-1.35,2.463-2.166,3.912-2.65,4.771c0.611-0.76,1.67-2.078,3.455-4.299c1.912-2.346,4.05-4.396,6.971-1.359
		c2.777,2.902,1.278,4.623-1.83,5.658c-1.652,0.523-3.25,0.766-4.667,0.904c1.295,0.143,2.772,0.385,4.381,0.814
		c3.687,0.953,6.188,2.756,5.125,5.633C117.838,97.842,114.482,95.824,111.198,93.455z"/>
	<path fill="none" d="M98.695,102.48c-0.314,0.496-0.799,2.029-0.303,2.332c0.507,0.391,1.773-0.602,2.094-1.074
		c0.309-0.441,0.165-1.037-0.342-1.434C99.66,101.963,99.01,102.051,98.695,102.48z"/>
	<path fill="none" d="M97.263,47.022c-2.446-3.981-4.816-3.425-5.919-0.76c-1.096,2.664-1.785,14.649-1.785,14.649
		s2.31-10.315,4.023-13.222C95.284,44.771,97.263,47.022,97.263,47.022z"/>
	<path fill="none" d="M100.255,97.037c-0.253,0.375-0.617,1.752-0.11,2.066c0.484,0.381,1.631-0.447,1.924-0.799
		c0.27-0.463,0.088-1.037-0.408-1.367C101.147,96.602,100.553,96.641,100.255,97.037z"/>
	<path fill="#E1C59C" d="M75.05,17.396c-32.787,0.077-59.33,26.582-59.38,59.388c0.05,32.789,26.593,59.316,59.38,59.395
		c32.782-0.078,59.314-26.605,59.363-59.395C134.364,43.978,107.832,17.473,75.05,17.396z M75.05,135.246
		c-32.291-0.072-58.399-26.186-58.449-58.463c0.05-32.282,26.158-58.379,58.449-58.451c32.258,0.072,58.382,26.169,58.443,58.451
		C133.433,109.061,107.309,135.174,75.05,135.246z"/>
	<path fill="#6DBF70" d="M74.708,6.755C36.208,6.766,5.024,37.963,5.024,76.45H5.013c0.011,38.489,31.194,69.673,69.695,69.673
		c38.5,0,69.684-31.184,69.684-69.673C144.393,37.963,113.209,6.766,74.708,6.755z M74.708,138.227
		c-34.12-0.061-61.705-27.689-61.766-61.776c0.061-34.115,27.646-61.716,61.766-61.78c34.143,0.063,61.716,27.665,61.783,61.78
		C136.425,110.57,108.852,138.166,74.708,138.227z"/>
	<path fill="#F7EE61" d="M47.207,84.639c1.256-1.906-0.904-3.395-1.576-10.089c-0.7-6.734,1.119-15.553,7.67-19.097
		c8.899-4.818,0.231-5.152,8.442-8.665l-3.251-2.196c0,0-0.099,0.135-0.243,0.312l-1.807-1.83c0,0-3.571,3.29-4.629,2.725
		c-10.949-5.811-23.507,13.503-21.022,26.149c1.212,6.067,5.494,9.78,7.092,8.161c0.76-0.766,0.728-1.621,0.551-3.033
		c0.105,0.309,0.177,0.633,0.298,0.928C41.051,83.707,45.961,86.533,47.207,84.639z M56.888,46.515
		c-0.722,0.78-1.526,1.488-2.105,1.612C54.981,47.557,55.461,47.022,56.888,46.515z"/>
	<path fill="#EC2224" d="M50.871,74.714c0.342,9.401,10.525,15.083,19.827,14.211c8.172-0.727,15.66-6.877,15.357-15.418
		c-0.193-4.872-2.204-9.089-5.108-11.426c-1.62-1.287-3.505-2.014-5.51-1.926c-2.397,0.063-4.105,1.417-6.006,1.863
		c0.066,1.62-0.728,6.946-1.444,6.287c-1.052-0.474-1.664-4.92-1.499-6.48c-1.532-0.455-3.213-1.273-4.921-1.185
		c-2.144,0.052-4.116,0.893-5.77,2.229C52.656,65.382,50.706,69.766,50.871,74.714z M58.663,63.283
		c1.642,0.774,3.3,1.54,4.959,2.331c-9.103,1.761-9.373,12.224-4.414,17.582C51.84,78.186,51.796,68.275,58.663,63.283z"/>
	<path fill="#6DBF70" d="M69.099,59.035c0-2.692-0.017-5.428-0.017-8.12L68.564,52.1l-0.628,6.987c-2.155-0.182-4.381,0.193-6.536,0
		c1.361,1.044,3.003,1.609,5.555,2.088c-0.072,0,0.347,5.406,0.959,6.122c0.672-1.097,1.058-5.678,0.793-5.824
		c1.973-0.323,4.193-1.163,5.891-2.488C72.719,58.833,70.681,58.591,69.099,59.035z"/>
	<path fill="#6DBF70" d="M87.537,66.953c1.223,2.229,2.021,0.75,3.339,0.231c1.301-0.526,0.931,2.331,3.059,3.284
		c2.127,0.97,3.3-1.766,4.562-1.108c1.278,0.65,0.931,4.565,2.97,3.444c2.083-1.135,17.953-17.961,15.005-22.386
		c-2.942-4.389-3.427,0.176-6.745-3.278c-3.339-3.453-4.728,0.256-4.728,0.256c-0.011,0.011-0.215,0.13-0.518,0.163
		c1.284-3.818,1.906-8.971-3.774-9.114c-0.667,0.717-1.328,1.441-2.006,2.158c5.317,0.022,5.51,3.237,4.006,6.183
		c-0.33-0.664-0.242-1.838-0.947-2.477c-1.896-1.692-3.555,1.535-4.701-0.446c-1.151-1.984-2.904-4.444-6.133-1.03
		C87.702,46.25,86.324,64.735,87.537,66.953z M91.344,46.262c1.103-2.665,3.473-3.221,5.919,0.76c0,0-1.979-2.251-3.681,0.667
		c-1.714,2.906-4.023,13.222-4.023,13.222S90.248,48.926,91.344,46.262z"/>
	<path fill="#E1C59C" d="M65.925,48.796l2.865,1.75c1.526,0.931,3.444,0.609,4.513-0.56l5.802-6.292
		c-1.746-0.813-3.548-1.841-5.278-3.022c-0.573,0.333-1.102,0.614-1.312,0.49c-1.301-0.851-2.513-1.733-3.582-2.642l-3.989,6.367
		C64.101,46.201,64.41,47.871,65.925,48.796z"/>
	<path fill="#FBE5AB" d="M87.74,44.275c4.128-5.852,2.535-13.908-3.587-18.019c-6.116-4.152-14.442-2.764-18.586,3.088
		c-1.791,2.524,2.766,7.563,8.26,11.327c1.73,1.182,3.532,2.209,5.278,3.022C82.947,45.482,86.43,46.116,87.74,44.275z
		 M70.455,33.32c-1.355-1.094-2.017-1.884-3.373-2.956c4.436-5.648,10.966-5.913,15.215-3.584
		C79.668,26.515,73.474,26.375,70.455,33.32z"/>
	<path fill="#6DBF70" d="M103.98,88.32c0,0,0.005,0,0.01,0C103.781,88.17,103.914,88.264,103.98,88.32z"/>
	<path fill="#6DBF70" d="M113.821,89.223c-1.608-0.43-3.086-0.672-4.381-0.814c1.417-0.139,3.015-0.381,4.667-0.904
		c3.108-1.035,4.607-2.756,1.83-5.658c-2.921-3.037-5.059-0.986-6.971,1.359c-1.785,2.221-2.844,3.539-3.455,4.299
		c0.484-0.859,1.301-2.309,2.65-4.771c1.449-2.723,2.573-5.453-1.273-7.062c-3.664-1.529-4.717,0.474-4.502,3.777
		c0.149,2.094,0.612,3.979,1.107,5.494c-0.633-1.428-1.525-3.135-2.776-4.932c-2.116-3.037-4.552-4.684-6.794-2.602
		c-2.402,2.117,0.572,4.438,3.812,6.564c3.824,2.539,5.609,3.746,6.459,4.318c-0.133,0.018-0.205,0.029-0.205,0.029
		c0.375,0.275,1.902,1.377,7.208,5.135c3.284,2.369,6.64,4.387,7.748,1.4C120.01,91.979,117.508,90.176,113.821,89.223z
		 M104.707,88.254c-0.039-0.154-0.088-0.342-0.176-0.562c0.109,0.23,0.203,0.418,0.264,0.539
		C104.773,88.254,104.734,88.254,104.707,88.254z"/>
	<path fill="#EA2227" d="M104.195,89.961c-15.843-11.473-20.207-4.738-22.373,4.029c-2.348,9.461-3.785,17.76,3.5,22.873
		c7.736,5.4,13.99,1.631,22.84-4.43C115.584,107.33,118.72,100.42,104.195,89.961z M86.926,94.369
		c0.313-0.43,0.969-0.518,1.454-0.158c0.507,0.312,0.65,0.941,0.325,1.426c-0.325,0.43-1.549,1.449-2.078,1.07
		C86.143,96.375,86.617,94.859,86.926,94.369z M85.559,102.789c-0.484-0.391-0.021-1.885,0.292-2.336
		c0.304-0.496,0.981-0.572,1.466-0.23c0.484,0.346,0.623,0.996,0.348,1.422C87.316,102.139,86.055,103.137,85.559,102.789z
		 M89.268,107.693c-0.32,0.387-1.604,1.412-2.1,1.064c-0.475-0.387-0.012-1.934,0.291-2.32c0.342-0.475,0.971-0.596,1.478-0.23
		C89.41,106.592,89.586,107.23,89.268,107.693z M91.372,104.178c-0.319,0.42-1.57,1.467-2.05,1.107
		c-0.513-0.379-0.027-1.949,0.281-2.309c0.314-0.496,0.964-0.578,1.449-0.242C91.56,103.082,91.703,103.738,91.372,104.178z
		 M92.469,98.16c-0.33,0.459-1.62,1.379-2.078,1.043c-0.496-0.314-0.038-1.846,0.266-2.32c0.324-0.463,1.008-0.557,1.482-0.176
		C92.623,97.037,92.761,97.715,92.469,98.16z M92.265,94.15c-0.485-0.32-0.038-1.896,0.298-2.32
		c0.303-0.441,0.953-0.535,1.465-0.188c0.469,0.336,0.617,0.959,0.304,1.432C94.027,93.504,92.761,94.486,92.265,94.15z
		 M95.273,107.021c-0.32,0.475-1.598,1.455-2.105,1.059c-0.484-0.281,0-1.836,0.309-2.309c0.331-0.436,0.981-0.523,1.477-0.193
		C95.438,105.902,95.593,106.592,95.273,107.021z M96.348,101.004c-0.324,0.436-1.581,1.395-2.094,1.07
		c-0.469-0.359-0.011-1.885,0.292-2.314c0.342-0.453,0.981-0.557,1.478-0.221C96.529,99.881,96.65,100.568,96.348,101.004z
		 M95.995,96.641c-0.479-0.314-0.022-1.873,0.281-2.359c0.353-0.43,1.014-0.506,1.472-0.188c0.496,0.393,0.645,1.02,0.342,1.455
		C97.775,96.033,96.469,96.977,95.995,96.641z M100.486,103.738c-0.32,0.473-1.587,1.465-2.094,1.074
		c-0.496-0.303-0.012-1.836,0.303-2.332c0.314-0.43,0.965-0.518,1.449-0.176C100.651,102.701,100.795,103.297,100.486,103.738z
		 M102.068,98.305c-0.293,0.352-1.439,1.18-1.924,0.799c-0.507-0.314-0.143-1.691,0.11-2.066c0.298-0.396,0.893-0.436,1.405-0.1
		C102.156,97.268,102.338,97.842,102.068,98.305z"/>
	<path fill="#6DBF70" d="M55.263,94.811c-0.314-0.309-0.617-0.629-0.976-0.881c-3.719-2.641-10.073-4.018-13.919,0.055
		c1.758,2.551,5.405,3.984,9.092,4.275c0.59-0.502,1.168-1.014,1.83-1.455C52.568,95.957,53.907,95.334,55.263,94.811z"/>
	<path fill="#F69220" d="M55.263,94.811c-1.356,0.523-2.695,1.146-3.973,1.994c-0.661,0.441-1.24,0.953-1.83,1.455
		c-6.568,5.512-8.745,14.141-4.706,20.213c4.392,6.656,14.464,7.709,22.482,2.381c8.023-5.301,10.955-15.012,6.541-21.646
		C70.08,93.643,62.382,92.055,55.263,94.811z M52.833,103.76c-0.92,1.428-2.32,2.248-3.125,1.785
		c-0.815-0.451-0.7-1.957,0.209-3.406c0.942-1.426,2.331-2.215,3.119-1.785C53.852,100.811,53.752,102.326,52.833,103.76z"/>
</g>
</svg>
